<?xml version="1.0" encoding="utf-8" standalone="no"?>
<!DOCTYPE svg PUBLIC "-//W3C//DTD SVG 1.1//EN"
  "http://www.w3.org/Graphics/SVG/1.1/DTD/svg11.dtd">
<svg xmlns:xlink="http://www.w3.org/1999/xlink" width="432pt" height="288pt" viewBox="0 0 432 288" xmlns="http://www.w3.org/2000/svg" version="1.1">
 <metadata>
  <rdf:RDF xmlns:dc="http://purl.org/dc/elements/1.1/" xmlns:cc="http://creativecommons.org/ns#" xmlns:rdf="http://www.w3.org/1999/02/22-rdf-syntax-ns#">
   <cc:Work>
    <dc:type rdf:resource="http://purl.org/dc/dcmitype/StillImage"/>
    <dc:date>2025-03-31T08:46:01.676078</dc:date>
    <dc:format>image/svg+xml</dc:format>
    <dc:creator>
     <cc:Agent>
      <dc:title>Matplotlib v3.10.0, https://matplotlib.org/</dc:title>
     </cc:Agent>
    </dc:creator>
   </cc:Work>
  </rdf:RDF>
 </metadata>
 <defs>
  <style type="text/css">*{stroke-linejoin: round; stroke-linecap: butt}</style>
 </defs>
 <g id="figure_1">
  <g id="patch_1">
   <path d="M 0 288 
L 432 288 
L 432 0 
L 0 0 
z
" style="fill: #ffffff"/>
  </g>
  <g id="axes_1">
   <g id="patch_2">
    <path d="M 54 256.32 
L 388.8 256.32 
L 388.8 34.56 
L 54 34.56 
z
" style="fill: #ffffff"/>
   </g>
   <g id="LineCollection_1">
    <path d="M 69.218182 45.659265 
L 69.218182 45.246495 
" clip-path="url(#p29a0af03eb)" style="fill: none; stroke: #ff0000; stroke-width: 1.5"/>
    <path d="M 71.985124 46.979835 
L 71.985124 46.595193 
" clip-path="url(#p29a0af03eb)" style="fill: none; stroke: #ff0000; stroke-width: 1.5"/>
    <path d="M 74.752066 46.016206 
L 74.752066 45.745462 
" clip-path="url(#p29a0af03eb)" style="fill: none; stroke: #ff0000; stroke-width: 1.5"/>
    <path d="M 77.519008 44.970677 
L 77.519008 44.64 
" clip-path="url(#p29a0af03eb)" style="fill: none; stroke: #ff0000; stroke-width: 1.5"/>
    <path d="M 80.28595 46.36899 
L 80.28595 45.895982 
" clip-path="url(#p29a0af03eb)" style="fill: none; stroke: #ff0000; stroke-width: 1.5"/>
    <path d="M 83.052893 45.972722 
L 83.052893 45.692936 
" clip-path="url(#p29a0af03eb)" style="fill: none; stroke: #ff0000; stroke-width: 1.5"/>
    <path d="M 85.819835 47.31666 
L 85.819835 47.084978 
" clip-path="url(#p29a0af03eb)" style="fill: none; stroke: #ff0000; stroke-width: 1.5"/>
    <path d="M 88.586777 46.546981 
L 88.586777 46.277655 
" clip-path="url(#p29a0af03eb)" style="fill: none; stroke: #ff0000; stroke-width: 1.5"/>
    <path d="M 91.353719 48.015849 
L 91.353719 47.738895 
" clip-path="url(#p29a0af03eb)" style="fill: none; stroke: #ff0000; stroke-width: 1.5"/>
    <path d="M 94.120661 49.550982 
L 94.120661 49.192733 
" clip-path="url(#p29a0af03eb)" style="fill: none; stroke: #ff0000; stroke-width: 1.5"/>
    <path d="M 96.887603 51.438418 
L 96.887603 50.950359 
" clip-path="url(#p29a0af03eb)" style="fill: none; stroke: #ff0000; stroke-width: 1.5"/>
    <path d="M 99.654545 52.783637 
L 99.654545 52.582286 
" clip-path="url(#p29a0af03eb)" style="fill: none; stroke: #ff0000; stroke-width: 1.5"/>
    <path d="M 102.421488 54.866541 
L 102.421488 54.525069 
" clip-path="url(#p29a0af03eb)" style="fill: none; stroke: #ff0000; stroke-width: 1.5"/>
    <path d="M 105.18843 56.239746 
L 105.18843 56.072004 
" clip-path="url(#p29a0af03eb)" style="fill: none; stroke: #ff0000; stroke-width: 1.5"/>
    <path d="M 107.955372 56.648368 
L 107.955372 56.296893 
" clip-path="url(#p29a0af03eb)" style="fill: none; stroke: #ff0000; stroke-width: 1.5"/>
    <path d="M 110.722314 56.60573 
L 110.722314 56.365375 
" clip-path="url(#p29a0af03eb)" style="fill: none; stroke: #ff0000; stroke-width: 1.5"/>
    <path d="M 113.489256 58.508748 
L 113.489256 57.998235 
" clip-path="url(#p29a0af03eb)" style="fill: none; stroke: #ff0000; stroke-width: 1.5"/>
    <path d="M 116.256198 59.82303 
L 116.256198 59.4883 
" clip-path="url(#p29a0af03eb)" style="fill: none; stroke: #ff0000; stroke-width: 1.5"/>
    <path d="M 119.02314 60.66752 
L 119.02314 60.181135 
" clip-path="url(#p29a0af03eb)" style="fill: none; stroke: #ff0000; stroke-width: 1.5"/>
    <path d="M 121.790083 61.357821 
L 121.790083 60.878574 
" clip-path="url(#p29a0af03eb)" style="fill: none; stroke: #ff0000; stroke-width: 1.5"/>
    <path d="M 124.557025 62.778778 
L 124.557025 62.532268 
" clip-path="url(#p29a0af03eb)" style="fill: none; stroke: #ff0000; stroke-width: 1.5"/>
    <path d="M 127.323967 62.595942 
L 127.323967 62.24378 
" clip-path="url(#p29a0af03eb)" style="fill: none; stroke: #ff0000; stroke-width: 1.5"/>
    <path d="M 130.090909 62.058727 
L 130.090909 61.796286 
" clip-path="url(#p29a0af03eb)" style="fill: none; stroke: #ff0000; stroke-width: 1.5"/>
    <path d="M 132.857851 63.65332 
L 132.857851 63.182492 
" clip-path="url(#p29a0af03eb)" style="fill: none; stroke: #ff0000; stroke-width: 1.5"/>
    <path d="M 135.624793 63.304074 
L 135.624793 63.118657 
" clip-path="url(#p29a0af03eb)" style="fill: none; stroke: #ff0000; stroke-width: 1.5"/>
    <path d="M 138.391736 64.64769 
L 138.391736 64.248812 
" clip-path="url(#p29a0af03eb)" style="fill: none; stroke: #ff0000; stroke-width: 1.5"/>
    <path d="M 141.158678 65.311359 
L 141.158678 64.966508 
" clip-path="url(#p29a0af03eb)" style="fill: none; stroke: #ff0000; stroke-width: 1.5"/>
    <path d="M 143.92562 65.409582 
L 143.92562 65.123523 
" clip-path="url(#p29a0af03eb)" style="fill: none; stroke: #ff0000; stroke-width: 1.5"/>
    <path d="M 146.692562 65.29924 
L 146.692562 65.11811 
" clip-path="url(#p29a0af03eb)" style="fill: none; stroke: #ff0000; stroke-width: 1.5"/>
    <path d="M 149.459504 66.566275 
L 149.459504 66.320549 
" clip-path="url(#p29a0af03eb)" style="fill: none; stroke: #ff0000; stroke-width: 1.5"/>
    <path d="M 152.226446 68.587285 
L 152.226446 68.160218 
" clip-path="url(#p29a0af03eb)" style="fill: none; stroke: #ff0000; stroke-width: 1.5"/>
    <path d="M 154.993388 67.782358 
L 154.993388 67.610956 
" clip-path="url(#p29a0af03eb)" style="fill: none; stroke: #ff0000; stroke-width: 1.5"/>
    <path d="M 157.760331 68.111338 
L 157.760331 67.952426 
" clip-path="url(#p29a0af03eb)" style="fill: none; stroke: #ff0000; stroke-width: 1.5"/>
    <path d="M 160.527273 69.256903 
L 160.527273 68.702739 
" clip-path="url(#p29a0af03eb)" style="fill: none; stroke: #ff0000; stroke-width: 1.5"/>
    <path d="M 163.294215 69.632376 
L 163.294215 69.48356 
" clip-path="url(#p29a0af03eb)" style="fill: none; stroke: #ff0000; stroke-width: 1.5"/>
    <path d="M 166.061157 71.301253 
L 166.061157 71.100984 
" clip-path="url(#p29a0af03eb)" style="fill: none; stroke: #ff0000; stroke-width: 1.5"/>
    <path d="M 168.828099 70.417366 
L 168.828099 69.930675 
" clip-path="url(#p29a0af03eb)" style="fill: none; stroke: #ff0000; stroke-width: 1.5"/>
    <path d="M 171.595041 71.985084 
L 171.595041 71.434531 
" clip-path="url(#p29a0af03eb)" style="fill: none; stroke: #ff0000; stroke-width: 1.5"/>
    <path d="M 174.361983 72.869768 
L 174.361983 72.483132 
" clip-path="url(#p29a0af03eb)" style="fill: none; stroke: #ff0000; stroke-width: 1.5"/>
    <path d="M 177.128926 72.728899 
L 177.128926 72.512491 
" clip-path="url(#p29a0af03eb)" style="fill: none; stroke: #ff0000; stroke-width: 1.5"/>
    <path d="M 179.895868 73.731882 
L 179.895868 73.127334 
" clip-path="url(#p29a0af03eb)" style="fill: none; stroke: #ff0000; stroke-width: 1.5"/>
    <path d="M 182.66281 73.994154 
L 182.66281 73.867985 
" clip-path="url(#p29a0af03eb)" style="fill: none; stroke: #ff0000; stroke-width: 1.5"/>
    <path d="M 185.429752 75.44987 
L 185.429752 74.848833 
" clip-path="url(#p29a0af03eb)" style="fill: none; stroke: #ff0000; stroke-width: 1.5"/>
    <path d="M 188.196694 76.904256 
L 188.196694 76.671804 
" clip-path="url(#p29a0af03eb)" style="fill: none; stroke: #ff0000; stroke-width: 1.5"/>
    <path d="M 190.963636 75.406654 
L 190.963636 75.290148 
" clip-path="url(#p29a0af03eb)" style="fill: none; stroke: #ff0000; stroke-width: 1.5"/>
    <path d="M 193.730579 77.586801 
L 193.730579 77.123195 
" clip-path="url(#p29a0af03eb)" style="fill: none; stroke: #ff0000; stroke-width: 1.5"/>
    <path d="M 196.497521 77.929827 
L 196.497521 77.815296 
" clip-path="url(#p29a0af03eb)" style="fill: none; stroke: #ff0000; stroke-width: 1.5"/>
    <path d="M 199.264463 78.994898 
L 199.264463 78.878958 
" clip-path="url(#p29a0af03eb)" style="fill: none; stroke: #ff0000; stroke-width: 1.5"/>
    <path d="M 202.031405 79.538495 
L 202.031405 79.435451 
" clip-path="url(#p29a0af03eb)" style="fill: none; stroke: #ff0000; stroke-width: 1.5"/>
    <path d="M 204.798347 81.256607 
L 204.798347 81.145787 
" clip-path="url(#p29a0af03eb)" style="fill: none; stroke: #ff0000; stroke-width: 1.5"/>
    <path d="M 207.565289 80.956784 
L 207.565289 80.865687 
" clip-path="url(#p29a0af03eb)" style="fill: none; stroke: #ff0000; stroke-width: 1.5"/>
    <path d="M 207.565289 80.956784 
L 207.565289 80.865687 
" clip-path="url(#p29a0af03eb)" style="fill: none; stroke: #ff0000; stroke-width: 1.5"/>
    <path d="M 218.633058 84.446687 
L 218.633058 84.3178 
" clip-path="url(#p29a0af03eb)" style="fill: none; stroke: #ff0000; stroke-width: 1.5"/>
    <path d="M 229.700826 89.509054 
L 229.700826 89.190222 
" clip-path="url(#p29a0af03eb)" style="fill: none; stroke: #ff0000; stroke-width: 1.5"/>
    <path d="M 240.768595 94.583608 
L 240.768595 94.265709 
" clip-path="url(#p29a0af03eb)" style="fill: none; stroke: #ff0000; stroke-width: 1.5"/>
    <path d="M 251.836364 97.425713 
L 251.836364 97.154413 
" clip-path="url(#p29a0af03eb)" style="fill: none; stroke: #ff0000; stroke-width: 1.5"/>
    <path d="M 262.904132 100.860795 
L 262.904132 100.373764 
" clip-path="url(#p29a0af03eb)" style="fill: none; stroke: #ff0000; stroke-width: 1.5"/>
    <path d="M 273.971901 106.840291 
L 273.971901 106.253383 
" clip-path="url(#p29a0af03eb)" style="fill: none; stroke: #ff0000; stroke-width: 1.5"/>
    <path d="M 285.039669 113.284908 
L 285.039669 112.864964 
" clip-path="url(#p29a0af03eb)" style="fill: none; stroke: #ff0000; stroke-width: 1.5"/>
    <path d="M 296.107438 120.253825 
L 296.107438 119.908984 
" clip-path="url(#p29a0af03eb)" style="fill: none; stroke: #ff0000; stroke-width: 1.5"/>
    <path d="M 307.175207 125.417148 
L 307.175207 125.099059 
" clip-path="url(#p29a0af03eb)" style="fill: none; stroke: #ff0000; stroke-width: 1.5"/>
    <path d="M 318.242975 131.503647 
L 318.242975 131.260239 
" clip-path="url(#p29a0af03eb)" style="fill: none; stroke: #ff0000; stroke-width: 1.5"/>
    <path d="M 329.310744 140.158005 
L 329.310744 139.941744 
" clip-path="url(#p29a0af03eb)" style="fill: none; stroke: #ff0000; stroke-width: 1.5"/>
    <path d="M 340.378512 149.277844 
L 340.378512 149.102586 
" clip-path="url(#p29a0af03eb)" style="fill: none; stroke: #ff0000; stroke-width: 1.5"/>
    <path d="M 351.446281 159.643013 
L 351.446281 159.490478 
" clip-path="url(#p29a0af03eb)" style="fill: none; stroke: #ff0000; stroke-width: 1.5"/>
    <path d="M 362.51405 169.924159 
L 362.51405 169.686864 
" clip-path="url(#p29a0af03eb)" style="fill: none; stroke: #ff0000; stroke-width: 1.5"/>
    <path d="M 373.581818 181.473823 
L 373.581818 181.081882 
" clip-path="url(#p29a0af03eb)" style="fill: none; stroke: #ff0000; stroke-width: 1.5"/>
   </g>
   <g id="line2d_1">
    <defs>
     <path id="m4c33dc4cef" d="M 0 3 
C 0.795609 3 1.55874 2.683901 2.12132 2.12132 
C 2.683901 1.55874 3 0.795609 3 0 
C 3 -0.795609 2.683901 -1.55874 2.12132 -2.12132 
C 1.55874 -2.683901 0.795609 -3 0 -3 
C -0.795609 -3 -1.55874 -2.683901 -2.12132 -2.12132 
C -2.683901 -1.55874 -3 -0.795609 -3 0 
C -3 0.795609 -2.683901 1.55874 -2.12132 2.12132 
C -1.55874 2.683901 -0.795609 3 0 3 
z
" style="stroke: #ff0000"/>
    </defs>
    <g clip-path="url(#p29a0af03eb)">
     <use xlink:href="#m4c33dc4cef" x="69.218182" y="45.45288" style="fill: #ff0000; stroke: #ff0000"/>
     <use xlink:href="#m4c33dc4cef" x="71.985124" y="46.787514" style="fill: #ff0000; stroke: #ff0000"/>
     <use xlink:href="#m4c33dc4cef" x="74.752066" y="45.880834" style="fill: #ff0000; stroke: #ff0000"/>
     <use xlink:href="#m4c33dc4cef" x="77.519008" y="44.805338" style="fill: #ff0000; stroke: #ff0000"/>
     <use xlink:href="#m4c33dc4cef" x="80.28595" y="46.132486" style="fill: #ff0000; stroke: #ff0000"/>
     <use xlink:href="#m4c33dc4cef" x="83.052893" y="45.832829" style="fill: #ff0000; stroke: #ff0000"/>
     <use xlink:href="#m4c33dc4cef" x="85.819835" y="47.200819" style="fill: #ff0000; stroke: #ff0000"/>
     <use xlink:href="#m4c33dc4cef" x="88.586777" y="46.412318" style="fill: #ff0000; stroke: #ff0000"/>
     <use xlink:href="#m4c33dc4cef" x="91.353719" y="47.877372" style="fill: #ff0000; stroke: #ff0000"/>
     <use xlink:href="#m4c33dc4cef" x="94.120661" y="49.371857" style="fill: #ff0000; stroke: #ff0000"/>
     <use xlink:href="#m4c33dc4cef" x="96.887603" y="51.194388" style="fill: #ff0000; stroke: #ff0000"/>
     <use xlink:href="#m4c33dc4cef" x="99.654545" y="52.682961" style="fill: #ff0000; stroke: #ff0000"/>
     <use xlink:href="#m4c33dc4cef" x="102.421488" y="54.695805" style="fill: #ff0000; stroke: #ff0000"/>
     <use xlink:href="#m4c33dc4cef" x="105.18843" y="56.155875" style="fill: #ff0000; stroke: #ff0000"/>
     <use xlink:href="#m4c33dc4cef" x="107.955372" y="56.472631" style="fill: #ff0000; stroke: #ff0000"/>
     <use xlink:href="#m4c33dc4cef" x="110.722314" y="56.485553" style="fill: #ff0000; stroke: #ff0000"/>
     <use xlink:href="#m4c33dc4cef" x="113.489256" y="58.253491" style="fill: #ff0000; stroke: #ff0000"/>
     <use xlink:href="#m4c33dc4cef" x="116.256198" y="59.655665" style="fill: #ff0000; stroke: #ff0000"/>
     <use xlink:href="#m4c33dc4cef" x="119.02314" y="60.424328" style="fill: #ff0000; stroke: #ff0000"/>
     <use xlink:href="#m4c33dc4cef" x="121.790083" y="61.118198" style="fill: #ff0000; stroke: #ff0000"/>
     <use xlink:href="#m4c33dc4cef" x="124.557025" y="62.655523" style="fill: #ff0000; stroke: #ff0000"/>
     <use xlink:href="#m4c33dc4cef" x="127.323967" y="62.419861" style="fill: #ff0000; stroke: #ff0000"/>
     <use xlink:href="#m4c33dc4cef" x="130.090909" y="61.927507" style="fill: #ff0000; stroke: #ff0000"/>
     <use xlink:href="#m4c33dc4cef" x="132.857851" y="63.417906" style="fill: #ff0000; stroke: #ff0000"/>
     <use xlink:href="#m4c33dc4cef" x="135.624793" y="63.211365" style="fill: #ff0000; stroke: #ff0000"/>
     <use xlink:href="#m4c33dc4cef" x="138.391736" y="64.448251" style="fill: #ff0000; stroke: #ff0000"/>
     <use xlink:href="#m4c33dc4cef" x="141.158678" y="65.138934" style="fill: #ff0000; stroke: #ff0000"/>
     <use xlink:href="#m4c33dc4cef" x="143.92562" y="65.266552" style="fill: #ff0000; stroke: #ff0000"/>
     <use xlink:href="#m4c33dc4cef" x="146.692562" y="65.208675" style="fill: #ff0000; stroke: #ff0000"/>
     <use xlink:href="#m4c33dc4cef" x="149.459504" y="66.443412" style="fill: #ff0000; stroke: #ff0000"/>
     <use xlink:href="#m4c33dc4cef" x="152.226446" y="68.373752" style="fill: #ff0000; stroke: #ff0000"/>
     <use xlink:href="#m4c33dc4cef" x="154.993388" y="67.696657" style="fill: #ff0000; stroke: #ff0000"/>
     <use xlink:href="#m4c33dc4cef" x="157.760331" y="68.031882" style="fill: #ff0000; stroke: #ff0000"/>
     <use xlink:href="#m4c33dc4cef" x="160.527273" y="68.979821" style="fill: #ff0000; stroke: #ff0000"/>
     <use xlink:href="#m4c33dc4cef" x="163.294215" y="69.557968" style="fill: #ff0000; stroke: #ff0000"/>
     <use xlink:href="#m4c33dc4cef" x="166.061157" y="71.201119" style="fill: #ff0000; stroke: #ff0000"/>
     <use xlink:href="#m4c33dc4cef" x="168.828099" y="70.17402" style="fill: #ff0000; stroke: #ff0000"/>
     <use xlink:href="#m4c33dc4cef" x="171.595041" y="71.709807" style="fill: #ff0000; stroke: #ff0000"/>
     <use xlink:href="#m4c33dc4cef" x="174.361983" y="72.67645" style="fill: #ff0000; stroke: #ff0000"/>
     <use xlink:href="#m4c33dc4cef" x="177.128926" y="72.620695" style="fill: #ff0000; stroke: #ff0000"/>
     <use xlink:href="#m4c33dc4cef" x="179.895868" y="73.429608" style="fill: #ff0000; stroke: #ff0000"/>
     <use xlink:href="#m4c33dc4cef" x="182.66281" y="73.93107" style="fill: #ff0000; stroke: #ff0000"/>
     <use xlink:href="#m4c33dc4cef" x="185.429752" y="75.149352" style="fill: #ff0000; stroke: #ff0000"/>
     <use xlink:href="#m4c33dc4cef" x="188.196694" y="76.78803" style="fill: #ff0000; stroke: #ff0000"/>
     <use xlink:href="#m4c33dc4cef" x="190.963636" y="75.348401" style="fill: #ff0000; stroke: #ff0000"/>
     <use xlink:href="#m4c33dc4cef" x="193.730579" y="77.354998" style="fill: #ff0000; stroke: #ff0000"/>
     <use xlink:href="#m4c33dc4cef" x="196.497521" y="77.872561" style="fill: #ff0000; stroke: #ff0000"/>
     <use xlink:href="#m4c33dc4cef" x="199.264463" y="78.936928" style="fill: #ff0000; stroke: #ff0000"/>
     <use xlink:href="#m4c33dc4cef" x="202.031405" y="79.486973" style="fill: #ff0000; stroke: #ff0000"/>
     <use xlink:href="#m4c33dc4cef" x="204.798347" y="81.201197" style="fill: #ff0000; stroke: #ff0000"/>
     <use xlink:href="#m4c33dc4cef" x="207.565289" y="80.911236" style="fill: #ff0000; stroke: #ff0000"/>
     <use xlink:href="#m4c33dc4cef" x="207.565289" y="80.911236" style="fill: #ff0000; stroke: #ff0000"/>
     <use xlink:href="#m4c33dc4cef" x="218.633058" y="84.382244" style="fill: #ff0000; stroke: #ff0000"/>
     <use xlink:href="#m4c33dc4cef" x="229.700826" y="89.349638" style="fill: #ff0000; stroke: #ff0000"/>
     <use xlink:href="#m4c33dc4cef" x="240.768595" y="94.424659" style="fill: #ff0000; stroke: #ff0000"/>
     <use xlink:href="#m4c33dc4cef" x="251.836364" y="97.290063" style="fill: #ff0000; stroke: #ff0000"/>
     <use xlink:href="#m4c33dc4cef" x="262.904132" y="100.61728" style="fill: #ff0000; stroke: #ff0000"/>
     <use xlink:href="#m4c33dc4cef" x="273.971901" y="106.546837" style="fill: #ff0000; stroke: #ff0000"/>
     <use xlink:href="#m4c33dc4cef" x="285.039669" y="113.074936" style="fill: #ff0000; stroke: #ff0000"/>
     <use xlink:href="#m4c33dc4cef" x="296.107438" y="120.081404" style="fill: #ff0000; stroke: #ff0000"/>
     <use xlink:href="#m4c33dc4cef" x="307.175207" y="125.258103" style="fill: #ff0000; stroke: #ff0000"/>
     <use xlink:href="#m4c33dc4cef" x="318.242975" y="131.381943" style="fill: #ff0000; stroke: #ff0000"/>
     <use xlink:href="#m4c33dc4cef" x="329.310744" y="140.049874" style="fill: #ff0000; stroke: #ff0000"/>
     <use xlink:href="#m4c33dc4cef" x="340.378512" y="149.190215" style="fill: #ff0000; stroke: #ff0000"/>
     <use xlink:href="#m4c33dc4cef" x="351.446281" y="159.566746" style="fill: #ff0000; stroke: #ff0000"/>
     <use xlink:href="#m4c33dc4cef" x="362.51405" y="169.805512" style="fill: #ff0000; stroke: #ff0000"/>
     <use xlink:href="#m4c33dc4cef" x="373.581818" y="181.277853" style="fill: #ff0000; stroke: #ff0000"/>
    </g>
   </g>
   <g id="matplotlib.axis_1">
    <g id="xtick_1">
     <g id="line2d_2">
      <defs>
       <path id="m81c963a4c4" d="M 0 0 
L 0 3.5 
" style="stroke: #000000; stroke-width: 0.8"/>
      </defs>
      <g>
       <use xlink:href="#m81c963a4c4" x="69.218182" y="256.32" style="stroke: #000000; stroke-width: 0.8"/>
      </g>
     </g>
     <g id="text_1">
      <!-- 0 -->
      <g transform="translate(66.036932 270.918437) scale(0.1 -0.1)">
       <defs>
        <path id="DejaVuSans-30" d="M 2034 4250 
Q 1547 4250 1301 3770 
Q 1056 3291 1056 2328 
Q 1056 1369 1301 889 
Q 1547 409 2034 409 
Q 2525 409 2770 889 
Q 3016 1369 3016 2328 
Q 3016 3291 2770 3770 
Q 2525 4250 2034 4250 
z
M 2034 4750 
Q 2819 4750 3233 4129 
Q 3647 3509 3647 2328 
Q 3647 1150 3233 529 
Q 2819 -91 2034 -91 
Q 1250 -91 836 529 
Q 422 1150 422 2328 
Q 422 3509 836 4129 
Q 1250 4750 2034 4750 
z
" transform="scale(0.015625)"/>
       </defs>
       <use xlink:href="#DejaVuSans-30"/>
      </g>
     </g>
    </g>
    <g id="xtick_2">
     <g id="line2d_3">
      <g>
       <use xlink:href="#m81c963a4c4" x="113.489256" y="256.32" style="stroke: #000000; stroke-width: 0.8"/>
      </g>
     </g>
     <g id="text_2">
      <!-- 2 -->
      <g transform="translate(110.308006 270.918437) scale(0.1 -0.1)">
       <defs>
        <path id="DejaVuSans-32" d="M 1228 531 
L 3431 531 
L 3431 0 
L 469 0 
L 469 531 
Q 828 903 1448 1529 
Q 2069 2156 2228 2338 
Q 2531 2678 2651 2914 
Q 2772 3150 2772 3378 
Q 2772 3750 2511 3984 
Q 2250 4219 1831 4219 
Q 1534 4219 1204 4116 
Q 875 4013 500 3803 
L 500 4441 
Q 881 4594 1212 4672 
Q 1544 4750 1819 4750 
Q 2544 4750 2975 4387 
Q 3406 4025 3406 3419 
Q 3406 3131 3298 2873 
Q 3191 2616 2906 2266 
Q 2828 2175 2409 1742 
Q 1991 1309 1228 531 
z
" transform="scale(0.015625)"/>
       </defs>
       <use xlink:href="#DejaVuSans-32"/>
      </g>
     </g>
    </g>
    <g id="xtick_3">
     <g id="line2d_4">
      <g>
       <use xlink:href="#m81c963a4c4" x="157.760331" y="256.32" style="stroke: #000000; stroke-width: 0.8"/>
      </g>
     </g>
     <g id="text_3">
      <!-- 4 -->
      <g transform="translate(154.579081 270.918437) scale(0.1 -0.1)">
       <defs>
        <path id="DejaVuSans-34" d="M 2419 4116 
L 825 1625 
L 2419 1625 
L 2419 4116 
z
M 2253 4666 
L 3047 4666 
L 3047 1625 
L 3713 1625 
L 3713 1100 
L 3047 1100 
L 3047 0 
L 2419 0 
L 2419 1100 
L 313 1100 
L 313 1709 
L 2253 4666 
z
" transform="scale(0.015625)"/>
       </defs>
       <use xlink:href="#DejaVuSans-34"/>
      </g>
     </g>
    </g>
    <g id="xtick_4">
     <g id="line2d_5">
      <g>
       <use xlink:href="#m81c963a4c4" x="202.031405" y="256.32" style="stroke: #000000; stroke-width: 0.8"/>
      </g>
     </g>
     <g id="text_4">
      <!-- 6 -->
      <g transform="translate(198.850155 270.918437) scale(0.1 -0.1)">
       <defs>
        <path id="DejaVuSans-36" d="M 2113 2584 
Q 1688 2584 1439 2293 
Q 1191 2003 1191 1497 
Q 1191 994 1439 701 
Q 1688 409 2113 409 
Q 2538 409 2786 701 
Q 3034 994 3034 1497 
Q 3034 2003 2786 2293 
Q 2538 2584 2113 2584 
z
M 3366 4563 
L 3366 3988 
Q 3128 4100 2886 4159 
Q 2644 4219 2406 4219 
Q 1781 4219 1451 3797 
Q 1122 3375 1075 2522 
Q 1259 2794 1537 2939 
Q 1816 3084 2150 3084 
Q 2853 3084 3261 2657 
Q 3669 2231 3669 1497 
Q 3669 778 3244 343 
Q 2819 -91 2113 -91 
Q 1303 -91 875 529 
Q 447 1150 447 2328 
Q 447 3434 972 4092 
Q 1497 4750 2381 4750 
Q 2619 4750 2861 4703 
Q 3103 4656 3366 4563 
z
" transform="scale(0.015625)"/>
       </defs>
       <use xlink:href="#DejaVuSans-36"/>
      </g>
     </g>
    </g>
    <g id="xtick_5">
     <g id="line2d_6">
      <g>
       <use xlink:href="#m81c963a4c4" x="246.302479" y="256.32" style="stroke: #000000; stroke-width: 0.8"/>
      </g>
     </g>
     <g id="text_5">
      <!-- 8 -->
      <g transform="translate(243.121229 270.918437) scale(0.1 -0.1)">
       <defs>
        <path id="DejaVuSans-38" d="M 2034 2216 
Q 1584 2216 1326 1975 
Q 1069 1734 1069 1313 
Q 1069 891 1326 650 
Q 1584 409 2034 409 
Q 2484 409 2743 651 
Q 3003 894 3003 1313 
Q 3003 1734 2745 1975 
Q 2488 2216 2034 2216 
z
M 1403 2484 
Q 997 2584 770 2862 
Q 544 3141 544 3541 
Q 544 4100 942 4425 
Q 1341 4750 2034 4750 
Q 2731 4750 3128 4425 
Q 3525 4100 3525 3541 
Q 3525 3141 3298 2862 
Q 3072 2584 2669 2484 
Q 3125 2378 3379 2068 
Q 3634 1759 3634 1313 
Q 3634 634 3220 271 
Q 2806 -91 2034 -91 
Q 1263 -91 848 271 
Q 434 634 434 1313 
Q 434 1759 690 2068 
Q 947 2378 1403 2484 
z
M 1172 3481 
Q 1172 3119 1398 2916 
Q 1625 2713 2034 2713 
Q 2441 2713 2670 2916 
Q 2900 3119 2900 3481 
Q 2900 3844 2670 4047 
Q 2441 4250 2034 4250 
Q 1625 4250 1398 4047 
Q 1172 3844 1172 3481 
z
" transform="scale(0.015625)"/>
       </defs>
       <use xlink:href="#DejaVuSans-38"/>
      </g>
     </g>
    </g>
    <g id="xtick_6">
     <g id="line2d_7">
      <g>
       <use xlink:href="#m81c963a4c4" x="290.573554" y="256.32" style="stroke: #000000; stroke-width: 0.8"/>
      </g>
     </g>
     <g id="text_6">
      <!-- 10 -->
      <g transform="translate(284.211054 270.918437) scale(0.1 -0.1)">
       <defs>
        <path id="DejaVuSans-31" d="M 794 531 
L 1825 531 
L 1825 4091 
L 703 3866 
L 703 4441 
L 1819 4666 
L 2450 4666 
L 2450 531 
L 3481 531 
L 3481 0 
L 794 0 
L 794 531 
z
" transform="scale(0.015625)"/>
       </defs>
       <use xlink:href="#DejaVuSans-31"/>
       <use xlink:href="#DejaVuSans-30" transform="translate(63.623047 0)"/>
      </g>
     </g>
    </g>
    <g id="xtick_7">
     <g id="line2d_8">
      <g>
       <use xlink:href="#m81c963a4c4" x="334.844628" y="256.32" style="stroke: #000000; stroke-width: 0.8"/>
      </g>
     </g>
     <g id="text_7">
      <!-- 12 -->
      <g transform="translate(328.482128 270.918437) scale(0.1 -0.1)">
       <use xlink:href="#DejaVuSans-31"/>
       <use xlink:href="#DejaVuSans-32" transform="translate(63.623047 0)"/>
      </g>
     </g>
    </g>
    <g id="xtick_8">
     <g id="line2d_9">
      <g>
       <use xlink:href="#m81c963a4c4" x="379.115702" y="256.32" style="stroke: #000000; stroke-width: 0.8"/>
      </g>
     </g>
     <g id="text_8">
      <!-- 14 -->
      <g transform="translate(372.753202 270.918437) scale(0.1 -0.1)">
       <use xlink:href="#DejaVuSans-31"/>
       <use xlink:href="#DejaVuSans-34" transform="translate(63.623047 0)"/>
      </g>
     </g>
    </g>
    <g id="text_9">
     <!-- $B/\Delta_0$ -->
     <g transform="translate(210.45 284.596563) scale(0.1 -0.1)">
      <defs>
       <path id="DejaVuSans-Oblique-42" d="M 1081 4666 
L 2694 4666 
Q 3350 4666 3675 4422 
Q 4000 4178 4000 3688 
Q 4000 3238 3720 2911 
Q 3441 2584 2988 2516 
Q 3375 2428 3569 2181 
Q 3763 1934 3763 1522 
Q 3763 819 3242 409 
Q 2722 0 1819 0 
L 172 0 
L 1081 4666 
z
M 1234 2228 
L 903 519 
L 1919 519 
Q 2491 519 2800 781 
Q 3109 1044 3109 1522 
Q 3109 1891 2904 2059 
Q 2700 2228 2247 2228 
L 1234 2228 
z
M 1606 4147 
L 1331 2741 
L 2272 2741 
Q 2775 2741 3058 2959 
Q 3341 3178 3341 3566 
Q 3341 3869 3150 4008 
Q 2959 4147 2541 4147 
L 1606 4147 
z
" transform="scale(0.015625)"/>
       <path id="DejaVuSans-2f" d="M 1625 4666 
L 2156 4666 
L 531 -594 
L 0 -594 
L 1625 4666 
z
" transform="scale(0.015625)"/>
       <path id="DejaVuSans-394" d="M 2188 4044 
L 906 525 
L 3472 525 
L 2188 4044 
z
M 50 0 
L 1831 4666 
L 2547 4666 
L 4325 0 
L 50 0 
z
" transform="scale(0.015625)"/>
      </defs>
      <use xlink:href="#DejaVuSans-Oblique-42" transform="translate(0 0.09375)"/>
      <use xlink:href="#DejaVuSans-2f" transform="translate(68.603516 0.09375)"/>
      <use xlink:href="#DejaVuSans-394" transform="translate(102.294922 0.09375)"/>
      <use xlink:href="#DejaVuSans-30" transform="translate(171.660156 -16.3125) scale(0.7)"/>
     </g>
    </g>
   </g>
   <g id="matplotlib.axis_2">
    <g id="ytick_1">
     <g id="line2d_10">
      <defs>
       <path id="m6e70e08166" d="M 0 0 
L -3.5 0 
" style="stroke: #000000; stroke-width: 0.8"/>
      </defs>
      <g>
       <use xlink:href="#m6e70e08166" x="54" y="254.086954" style="stroke: #000000; stroke-width: 0.8"/>
      </g>
     </g>
     <g id="text_10">
      <!-- 2.08 -->
      <g transform="translate(24.734375 257.886173) scale(0.1 -0.1)">
       <defs>
        <path id="DejaVuSans-2e" d="M 684 794 
L 1344 794 
L 1344 0 
L 684 0 
L 684 794 
z
" transform="scale(0.015625)"/>
       </defs>
       <use xlink:href="#DejaVuSans-32"/>
       <use xlink:href="#DejaVuSans-2e" transform="translate(63.623047 0)"/>
       <use xlink:href="#DejaVuSans-30" transform="translate(95.410156 0)"/>
       <use xlink:href="#DejaVuSans-38" transform="translate(159.033203 0)"/>
      </g>
     </g>
    </g>
    <g id="ytick_2">
     <g id="line2d_11">
      <g>
       <use xlink:href="#m6e70e08166" x="54" y="217.056582" style="stroke: #000000; stroke-width: 0.8"/>
      </g>
     </g>
     <g id="text_11">
      <!-- 2.09 -->
      <g transform="translate(24.734375 220.8558) scale(0.1 -0.1)">
       <defs>
        <path id="DejaVuSans-39" d="M 703 97 
L 703 672 
Q 941 559 1184 500 
Q 1428 441 1663 441 
Q 2288 441 2617 861 
Q 2947 1281 2994 2138 
Q 2813 1869 2534 1725 
Q 2256 1581 1919 1581 
Q 1219 1581 811 2004 
Q 403 2428 403 3163 
Q 403 3881 828 4315 
Q 1253 4750 1959 4750 
Q 2769 4750 3195 4129 
Q 3622 3509 3622 2328 
Q 3622 1225 3098 567 
Q 2575 -91 1691 -91 
Q 1453 -91 1209 -44 
Q 966 3 703 97 
z
M 1959 2075 
Q 2384 2075 2632 2365 
Q 2881 2656 2881 3163 
Q 2881 3666 2632 3958 
Q 2384 4250 1959 4250 
Q 1534 4250 1286 3958 
Q 1038 3666 1038 3163 
Q 1038 2656 1286 2365 
Q 1534 2075 1959 2075 
z
" transform="scale(0.015625)"/>
       </defs>
       <use xlink:href="#DejaVuSans-32"/>
       <use xlink:href="#DejaVuSans-2e" transform="translate(63.623047 0)"/>
       <use xlink:href="#DejaVuSans-30" transform="translate(95.410156 0)"/>
       <use xlink:href="#DejaVuSans-39" transform="translate(159.033203 0)"/>
      </g>
     </g>
    </g>
    <g id="ytick_3">
     <g id="line2d_12">
      <g>
       <use xlink:href="#m6e70e08166" x="54" y="180.026209" style="stroke: #000000; stroke-width: 0.8"/>
      </g>
     </g>
     <g id="text_12">
      <!-- 2.10 -->
      <g transform="translate(24.734375 183.825428) scale(0.1 -0.1)">
       <use xlink:href="#DejaVuSans-32"/>
       <use xlink:href="#DejaVuSans-2e" transform="translate(63.623047 0)"/>
       <use xlink:href="#DejaVuSans-31" transform="translate(95.410156 0)"/>
       <use xlink:href="#DejaVuSans-30" transform="translate(159.033203 0)"/>
      </g>
     </g>
    </g>
    <g id="ytick_4">
     <g id="line2d_13">
      <g>
       <use xlink:href="#m6e70e08166" x="54" y="142.995837" style="stroke: #000000; stroke-width: 0.8"/>
      </g>
     </g>
     <g id="text_13">
      <!-- 2.11 -->
      <g transform="translate(24.734375 146.795056) scale(0.1 -0.1)">
       <use xlink:href="#DejaVuSans-32"/>
       <use xlink:href="#DejaVuSans-2e" transform="translate(63.623047 0)"/>
       <use xlink:href="#DejaVuSans-31" transform="translate(95.410156 0)"/>
       <use xlink:href="#DejaVuSans-31" transform="translate(159.033203 0)"/>
      </g>
     </g>
    </g>
    <g id="ytick_5">
     <g id="line2d_14">
      <g>
       <use xlink:href="#m6e70e08166" x="54" y="105.965465" style="stroke: #000000; stroke-width: 0.8"/>
      </g>
     </g>
     <g id="text_14">
      <!-- 2.12 -->
      <g transform="translate(24.734375 109.764683) scale(0.1 -0.1)">
       <use xlink:href="#DejaVuSans-32"/>
       <use xlink:href="#DejaVuSans-2e" transform="translate(63.623047 0)"/>
       <use xlink:href="#DejaVuSans-31" transform="translate(95.410156 0)"/>
       <use xlink:href="#DejaVuSans-32" transform="translate(159.033203 0)"/>
      </g>
     </g>
    </g>
    <g id="ytick_6">
     <g id="line2d_15">
      <g>
       <use xlink:href="#m6e70e08166" x="54" y="68.935092" style="stroke: #000000; stroke-width: 0.8"/>
      </g>
     </g>
     <g id="text_15">
      <!-- 2.13 -->
      <g transform="translate(24.734375 72.734311) scale(0.1 -0.1)">
       <defs>
        <path id="DejaVuSans-33" d="M 2597 2516 
Q 3050 2419 3304 2112 
Q 3559 1806 3559 1356 
Q 3559 666 3084 287 
Q 2609 -91 1734 -91 
Q 1441 -91 1130 -33 
Q 819 25 488 141 
L 488 750 
Q 750 597 1062 519 
Q 1375 441 1716 441 
Q 2309 441 2620 675 
Q 2931 909 2931 1356 
Q 2931 1769 2642 2001 
Q 2353 2234 1838 2234 
L 1294 2234 
L 1294 2753 
L 1863 2753 
Q 2328 2753 2575 2939 
Q 2822 3125 2822 3475 
Q 2822 3834 2567 4026 
Q 2313 4219 1838 4219 
Q 1578 4219 1281 4162 
Q 984 4106 628 3988 
L 628 4550 
Q 988 4650 1302 4700 
Q 1616 4750 1894 4750 
Q 2613 4750 3031 4423 
Q 3450 4097 3450 3541 
Q 3450 3153 3228 2886 
Q 3006 2619 2597 2516 
z
" transform="scale(0.015625)"/>
       </defs>
       <use xlink:href="#DejaVuSans-32"/>
       <use xlink:href="#DejaVuSans-2e" transform="translate(63.623047 0)"/>
       <use xlink:href="#DejaVuSans-31" transform="translate(95.410156 0)"/>
       <use xlink:href="#DejaVuSans-33" transform="translate(159.033203 0)"/>
      </g>
     </g>
    </g>
    <g id="text_16">
     <!-- $n_s$ -->
     <g transform="translate(18.654688 150.59) rotate(-90) scale(0.1 -0.1)">
      <defs>
       <path id="DejaVuSans-Oblique-6e" d="M 3566 2113 
L 3156 0 
L 2578 0 
L 2988 2091 
Q 3016 2238 3031 2350 
Q 3047 2463 3047 2528 
Q 3047 2791 2881 2937 
Q 2716 3084 2419 3084 
Q 1956 3084 1622 2776 
Q 1288 2469 1184 1941 
L 800 0 
L 225 0 
L 903 3500 
L 1478 3500 
L 1363 2950 
Q 1603 3253 1940 3418 
Q 2278 3584 2650 3584 
Q 3113 3584 3367 3334 
Q 3622 3084 3622 2631 
Q 3622 2519 3608 2391 
Q 3594 2263 3566 2113 
z
" transform="scale(0.015625)"/>
       <path id="DejaVuSans-Oblique-73" d="M 3200 3397 
L 3091 2853 
Q 2863 2978 2609 3040 
Q 2356 3103 2088 3103 
Q 1634 3103 1373 2948 
Q 1113 2794 1113 2528 
Q 1113 2219 1719 2053 
Q 1766 2041 1788 2034 
L 1972 1978 
Q 2547 1819 2739 1644 
Q 2931 1469 2931 1166 
Q 2931 609 2489 259 
Q 2047 -91 1331 -91 
Q 1053 -91 747 -37 
Q 441 16 72 128 
L 184 722 
Q 500 559 806 475 
Q 1113 391 1394 391 
Q 1816 391 2080 572 
Q 2344 753 2344 1031 
Q 2344 1331 1650 1516 
L 1591 1531 
L 1394 1581 
Q 956 1697 753 1886 
Q 550 2075 550 2369 
Q 550 2928 970 3256 
Q 1391 3584 2113 3584 
Q 2397 3584 2667 3537 
Q 2938 3491 3200 3397 
z
" transform="scale(0.015625)"/>
      </defs>
      <use xlink:href="#DejaVuSans-Oblique-6e"/>
      <use xlink:href="#DejaVuSans-Oblique-73" transform="translate(63.378906 -16.40625) scale(0.7)"/>
     </g>
    </g>
    <g id="text_17">
     <!-- 1e7 -->
     <g transform="translate(54 31.56) scale(0.1 -0.1)">
      <defs>
       <path id="DejaVuSans-65" d="M 3597 1894 
L 3597 1613 
L 953 1613 
Q 991 1019 1311 708 
Q 1631 397 2203 397 
Q 2534 397 2845 478 
Q 3156 559 3463 722 
L 3463 178 
Q 3153 47 2828 -22 
Q 2503 -91 2169 -91 
Q 1331 -91 842 396 
Q 353 884 353 1716 
Q 353 2575 817 3079 
Q 1281 3584 2069 3584 
Q 2775 3584 3186 3129 
Q 3597 2675 3597 1894 
z
M 3022 2063 
Q 3016 2534 2758 2815 
Q 2500 3097 2075 3097 
Q 1594 3097 1305 2825 
Q 1016 2553 972 2059 
L 3022 2063 
z
" transform="scale(0.015625)"/>
       <path id="DejaVuSans-37" d="M 525 4666 
L 3525 4666 
L 3525 4397 
L 1831 0 
L 1172 0 
L 2766 4134 
L 525 4134 
L 525 4666 
z
" transform="scale(0.015625)"/>
      </defs>
      <use xlink:href="#DejaVuSans-31"/>
      <use xlink:href="#DejaVuSans-65" transform="translate(63.623047 0)"/>
      <use xlink:href="#DejaVuSans-37" transform="translate(125.146484 0)"/>
     </g>
    </g>
   </g>
   <g id="LineCollection_2">
    <path d="M 69.218182 46.212202 
L 69.218182 45.935181 
" clip-path="url(#p29a0af03eb)" style="fill: none; stroke: #000000; stroke-width: 1.5"/>
    <path d="M 71.985124 47.049055 
L 71.985124 46.776175 
" clip-path="url(#p29a0af03eb)" style="fill: none; stroke: #000000; stroke-width: 1.5"/>
    <path d="M 74.752066 47.339427 
L 74.752066 47.173284 
" clip-path="url(#p29a0af03eb)" style="fill: none; stroke: #000000; stroke-width: 1.5"/>
    <path d="M 77.519008 49.1579 
L 77.519008 48.936705 
" clip-path="url(#p29a0af03eb)" style="fill: none; stroke: #000000; stroke-width: 1.5"/>
    <path d="M 80.28595 50.188459 
L 80.28595 49.988905 
" clip-path="url(#p29a0af03eb)" style="fill: none; stroke: #000000; stroke-width: 1.5"/>
    <path d="M 83.052893 52.870317 
L 83.052893 52.72098 
" clip-path="url(#p29a0af03eb)" style="fill: none; stroke: #000000; stroke-width: 1.5"/>
    <path d="M 85.819835 56.92056 
L 85.819835 56.73279 
" clip-path="url(#p29a0af03eb)" style="fill: none; stroke: #000000; stroke-width: 1.5"/>
    <path d="M 88.586777 62.771767 
L 88.586777 62.318466 
" clip-path="url(#p29a0af03eb)" style="fill: none; stroke: #000000; stroke-width: 1.5"/>
    <path d="M 91.353719 69.739767 
L 91.353719 69.390908 
" clip-path="url(#p29a0af03eb)" style="fill: none; stroke: #000000; stroke-width: 1.5"/>
    <path d="M 94.120661 78.887254 
L 94.120661 78.500601 
" clip-path="url(#p29a0af03eb)" style="fill: none; stroke: #000000; stroke-width: 1.5"/>
    <path d="M 96.887603 88.756352 
L 96.887603 88.568869 
" clip-path="url(#p29a0af03eb)" style="fill: none; stroke: #000000; stroke-width: 1.5"/>
    <path d="M 99.654545 103.675413 
L 99.654545 103.362862 
" clip-path="url(#p29a0af03eb)" style="fill: none; stroke: #000000; stroke-width: 1.5"/>
    <path d="M 102.421488 118.997217 
L 102.421488 118.414629 
" clip-path="url(#p29a0af03eb)" style="fill: none; stroke: #000000; stroke-width: 1.5"/>
    <path d="M 105.18843 130.644972 
L 105.18843 129.745858 
" clip-path="url(#p29a0af03eb)" style="fill: none; stroke: #000000; stroke-width: 1.5"/>
    <path d="M 107.955372 138.285276 
L 107.955372 136.912971 
" clip-path="url(#p29a0af03eb)" style="fill: none; stroke: #000000; stroke-width: 1.5"/>
    <path d="M 110.722314 160.432547 
L 110.722314 158.954616 
" clip-path="url(#p29a0af03eb)" style="fill: none; stroke: #000000; stroke-width: 1.5"/>
    <path d="M 113.489256 171.406117 
L 113.489256 169.964811 
" clip-path="url(#p29a0af03eb)" style="fill: none; stroke: #000000; stroke-width: 1.5"/>
    <path d="M 116.256198 202.138648 
L 116.256198 200.500608 
" clip-path="url(#p29a0af03eb)" style="fill: none; stroke: #000000; stroke-width: 1.5"/>
    <path d="M 119.02314 206.74507 
L 119.02314 205.388173 
" clip-path="url(#p29a0af03eb)" style="fill: none; stroke: #000000; stroke-width: 1.5"/>
    <path d="M 121.790083 216.152092 
L 121.790083 214.86082 
" clip-path="url(#p29a0af03eb)" style="fill: none; stroke: #000000; stroke-width: 1.5"/>
    <path d="M 124.557025 203.910147 
L 124.557025 202.648222 
" clip-path="url(#p29a0af03eb)" style="fill: none; stroke: #000000; stroke-width: 1.5"/>
    <path d="M 127.323967 210.576493 
L 127.323967 209.219982 
" clip-path="url(#p29a0af03eb)" style="fill: none; stroke: #000000; stroke-width: 1.5"/>
    <path d="M 130.090909 212.199251 
L 130.090909 210.951627 
" clip-path="url(#p29a0af03eb)" style="fill: none; stroke: #000000; stroke-width: 1.5"/>
    <path d="M 132.857851 208.117846 
L 132.857851 207.067029 
" clip-path="url(#p29a0af03eb)" style="fill: none; stroke: #000000; stroke-width: 1.5"/>
    <path d="M 135.624793 216.574828 
L 135.624793 215.444559 
" clip-path="url(#p29a0af03eb)" style="fill: none; stroke: #000000; stroke-width: 1.5"/>
    <path d="M 138.391736 215.399803 
L 138.391736 214.357827 
" clip-path="url(#p29a0af03eb)" style="fill: none; stroke: #000000; stroke-width: 1.5"/>
    <path d="M 141.158678 205.983312 
L 141.158678 205.019811 
" clip-path="url(#p29a0af03eb)" style="fill: none; stroke: #000000; stroke-width: 1.5"/>
    <path d="M 143.92562 212.381744 
L 143.92562 211.321877 
" clip-path="url(#p29a0af03eb)" style="fill: none; stroke: #000000; stroke-width: 1.5"/>
    <path d="M 146.692562 202.216544 
L 146.692562 201.242459 
" clip-path="url(#p29a0af03eb)" style="fill: none; stroke: #000000; stroke-width: 1.5"/>
    <path d="M 149.459504 215.042709 
L 149.459504 213.764101 
" clip-path="url(#p29a0af03eb)" style="fill: none; stroke: #000000; stroke-width: 1.5"/>
    <path d="M 152.226446 208.493883 
L 152.226446 207.474501 
" clip-path="url(#p29a0af03eb)" style="fill: none; stroke: #000000; stroke-width: 1.5"/>
    <path d="M 154.993388 206.978058 
L 154.993388 205.900174 
" clip-path="url(#p29a0af03eb)" style="fill: none; stroke: #000000; stroke-width: 1.5"/>
    <path d="M 157.760331 211.415519 
L 157.760331 210.389577 
" clip-path="url(#p29a0af03eb)" style="fill: none; stroke: #000000; stroke-width: 1.5"/>
    <path d="M 160.527273 201.423715 
L 160.527273 200.648786 
" clip-path="url(#p29a0af03eb)" style="fill: none; stroke: #000000; stroke-width: 1.5"/>
    <path d="M 163.294215 201.334274 
L 163.294215 200.483235 
" clip-path="url(#p29a0af03eb)" style="fill: none; stroke: #000000; stroke-width: 1.5"/>
    <path d="M 166.061157 207.681938 
L 166.061157 206.733832 
" clip-path="url(#p29a0af03eb)" style="fill: none; stroke: #000000; stroke-width: 1.5"/>
    <path d="M 168.828099 195.505063 
L 168.828099 194.598681 
" clip-path="url(#p29a0af03eb)" style="fill: none; stroke: #000000; stroke-width: 1.5"/>
    <path d="M 171.595041 199.402285 
L 171.595041 198.627566 
" clip-path="url(#p29a0af03eb)" style="fill: none; stroke: #000000; stroke-width: 1.5"/>
    <path d="M 174.361983 201.747205 
L 174.361983 200.955627 
" clip-path="url(#p29a0af03eb)" style="fill: none; stroke: #000000; stroke-width: 1.5"/>
    <path d="M 177.128926 198.314561 
L 177.128926 197.597195 
" clip-path="url(#p29a0af03eb)" style="fill: none; stroke: #000000; stroke-width: 1.5"/>
    <path d="M 179.895868 199.054886 
L 179.895868 198.364818 
" clip-path="url(#p29a0af03eb)" style="fill: none; stroke: #000000; stroke-width: 1.5"/>
    <path d="M 182.66281 195.663585 
L 182.66281 194.826397 
" clip-path="url(#p29a0af03eb)" style="fill: none; stroke: #000000; stroke-width: 1.5"/>
    <path d="M 185.429752 203.414867 
L 185.429752 202.585058 
" clip-path="url(#p29a0af03eb)" style="fill: none; stroke: #000000; stroke-width: 1.5"/>
    <path d="M 188.196694 207.240912 
L 188.196694 206.126271 
" clip-path="url(#p29a0af03eb)" style="fill: none; stroke: #000000; stroke-width: 1.5"/>
    <path d="M 190.963636 199.878752 
L 190.963636 199.153324 
" clip-path="url(#p29a0af03eb)" style="fill: none; stroke: #000000; stroke-width: 1.5"/>
    <path d="M 193.730579 206.322394 
L 193.730579 205.497492 
" clip-path="url(#p29a0af03eb)" style="fill: none; stroke: #000000; stroke-width: 1.5"/>
    <path d="M 196.497521 193.90693 
L 196.497521 193.156132 
" clip-path="url(#p29a0af03eb)" style="fill: none; stroke: #000000; stroke-width: 1.5"/>
    <path d="M 199.264463 196.260967 
L 199.264463 195.559832 
" clip-path="url(#p29a0af03eb)" style="fill: none; stroke: #000000; stroke-width: 1.5"/>
    <path d="M 202.031405 206.836946 
L 202.031405 206.176215 
" clip-path="url(#p29a0af03eb)" style="fill: none; stroke: #000000; stroke-width: 1.5"/>
    <path d="M 207.565289 197.398096 
L 207.565289 196.847259 
" clip-path="url(#p29a0af03eb)" style="fill: none; stroke: #000000; stroke-width: 1.5"/>
    <path d="M 218.633058 199.694824 
L 218.633058 198.336953 
" clip-path="url(#p29a0af03eb)" style="fill: none; stroke: #000000; stroke-width: 1.5"/>
    <path d="M 229.700826 200.186812 
L 229.700826 199.203811 
" clip-path="url(#p29a0af03eb)" style="fill: none; stroke: #000000; stroke-width: 1.5"/>
    <path d="M 240.768595 207.563398 
L 240.768595 206.58883 
" clip-path="url(#p29a0af03eb)" style="fill: none; stroke: #000000; stroke-width: 1.5"/>
    <path d="M 251.836364 205.535779 
L 251.836364 204.276049 
" clip-path="url(#p29a0af03eb)" style="fill: none; stroke: #000000; stroke-width: 1.5"/>
    <path d="M 262.904132 205.290999 
L 262.904132 203.734057 
" clip-path="url(#p29a0af03eb)" style="fill: none; stroke: #000000; stroke-width: 1.5"/>
    <path d="M 273.971901 208.813573 
L 273.971901 207.127502 
" clip-path="url(#p29a0af03eb)" style="fill: none; stroke: #000000; stroke-width: 1.5"/>
    <path d="M 285.039669 208.845466 
L 285.039669 207.538257 
" clip-path="url(#p29a0af03eb)" style="fill: none; stroke: #000000; stroke-width: 1.5"/>
    <path d="M 296.107438 213.436629 
L 296.107438 211.870115 
" clip-path="url(#p29a0af03eb)" style="fill: none; stroke: #000000; stroke-width: 1.5"/>
    <path d="M 307.175207 211.232728 
L 307.175207 209.803888 
" clip-path="url(#p29a0af03eb)" style="fill: none; stroke: #000000; stroke-width: 1.5"/>
    <path d="M 318.242975 216.155759 
L 318.242975 214.347523 
" clip-path="url(#p29a0af03eb)" style="fill: none; stroke: #000000; stroke-width: 1.5"/>
    <path d="M 329.310744 219.874291 
L 329.310744 218.182778 
" clip-path="url(#p29a0af03eb)" style="fill: none; stroke: #000000; stroke-width: 1.5"/>
    <path d="M 340.378512 220.660754 
L 340.378512 218.591213 
" clip-path="url(#p29a0af03eb)" style="fill: none; stroke: #000000; stroke-width: 1.5"/>
    <path d="M 351.446281 224.351016 
L 351.446281 222.858543 
" clip-path="url(#p29a0af03eb)" style="fill: none; stroke: #000000; stroke-width: 1.5"/>
    <path d="M 362.51405 225.973851 
L 362.51405 224.042234 
" clip-path="url(#p29a0af03eb)" style="fill: none; stroke: #000000; stroke-width: 1.5"/>
    <path d="M 373.581818 228.784526 
L 373.581818 227.050107 
" clip-path="url(#p29a0af03eb)" style="fill: none; stroke: #000000; stroke-width: 1.5"/>
   </g>
   <g id="line2d_16">
    <path d="M 69.218182 46.073691 
L 71.985124 46.094901 
L 74.752066 46.133835 
L 77.519008 46.211035 
L 80.28595 46.310922 
L 83.052893 46.445406 
L 85.819835 46.608316 
L 88.586777 46.802197 
L 91.353719 49.875939 
L 94.120661 54.754528 
L 96.887603 78.595872 
L 99.654545 108.135255 
L 102.421488 152.990825 
L 105.18843 197.162804 
L 107.955372 217.683901 
L 110.722314 232.640781 
L 113.489256 229.01957 
L 116.256198 224.556456 
L 119.02314 218.738405 
L 121.790083 213.590654 
L 124.557025 209.019326 
L 127.323967 205.310468 
L 130.090909 201.992242 
L 132.857851 199.362741 
L 135.624793 196.869231 
L 138.391736 195.039815 
L 141.158678 193.313029 
L 143.92562 192.091485 
L 146.692562 190.813386 
L 149.459504 189.391591 
L 152.226446 188.306798 
L 154.993388 187.612982 
L 157.760331 187.089131 
L 160.527273 186.676444 
L 163.294215 186.029917 
L 166.061157 185.322449 
L 168.828099 185.055792 
L 171.595041 184.849359 
L 174.361983 184.793213 
L 177.128926 184.704669 
L 179.895868 184.477427 
L 182.66281 184.443973 
L 185.429752 184.712685 
L 188.196694 184.871779 
L 190.963636 184.938795 
L 193.730579 185.125474 
L 196.497521 185.372647 
L 199.264463 185.790489 
L 202.031405 186.250128 
L 207.565289 186.495383 
L 218.633058 188.343692 
L 229.700826 190.797298 
L 240.768595 193.114551 
L 251.836364 196.127047 
L 262.904132 199.388404 
L 273.971901 202.65589 
L 285.039669 206.656364 
L 296.107438 210.867389 
L 307.175207 215.288965 
L 318.242975 219.921093 
L 329.310744 224.763772 
L 340.378512 229.817002 
L 351.446281 235.080783 
L 362.51405 240.555116 
L 373.581818 246.24 
" clip-path="url(#p29a0af03eb)" style="fill: none; stroke: #008000; stroke-width: 1.5; stroke-linecap: square"/>
   </g>
   <g id="line2d_17">
    <defs>
     <path id="m474cb6b7bd" d="M 0 3 
C 0.795609 3 1.55874 2.683901 2.12132 2.12132 
C 2.683901 1.55874 3 0.795609 3 0 
C 3 -0.795609 2.683901 -1.55874 2.12132 -2.12132 
C 1.55874 -2.683901 0.795609 -3 0 -3 
C -0.795609 -3 -1.55874 -2.683901 -2.12132 -2.12132 
C -2.683901 -1.55874 -3 -0.795609 -3 0 
C -3 0.795609 -2.683901 1.55874 -2.12132 2.12132 
C -1.55874 2.683901 -0.795609 3 0 3 
z
" style="stroke: #000000"/>
    </defs>
    <g clip-path="url(#p29a0af03eb)">
     <use xlink:href="#m474cb6b7bd" x="69.218182" y="46.073691" style="stroke: #000000"/>
     <use xlink:href="#m474cb6b7bd" x="71.985124" y="46.912615" style="stroke: #000000"/>
     <use xlink:href="#m474cb6b7bd" x="74.752066" y="47.256356" style="stroke: #000000"/>
     <use xlink:href="#m474cb6b7bd" x="77.519008" y="49.047302" style="stroke: #000000"/>
     <use xlink:href="#m474cb6b7bd" x="80.28595" y="50.088682" style="stroke: #000000"/>
     <use xlink:href="#m474cb6b7bd" x="83.052893" y="52.795649" style="stroke: #000000"/>
     <use xlink:href="#m474cb6b7bd" x="85.819835" y="56.826675" style="stroke: #000000"/>
     <use xlink:href="#m474cb6b7bd" x="88.586777" y="62.545117" style="stroke: #000000"/>
     <use xlink:href="#m474cb6b7bd" x="91.353719" y="69.565338" style="stroke: #000000"/>
     <use xlink:href="#m474cb6b7bd" x="94.120661" y="78.693927" style="stroke: #000000"/>
     <use xlink:href="#m474cb6b7bd" x="96.887603" y="88.66261" style="stroke: #000000"/>
     <use xlink:href="#m474cb6b7bd" x="99.654545" y="103.519138" style="stroke: #000000"/>
     <use xlink:href="#m474cb6b7bd" x="102.421488" y="118.705923" style="stroke: #000000"/>
     <use xlink:href="#m474cb6b7bd" x="105.18843" y="130.195415" style="stroke: #000000"/>
     <use xlink:href="#m474cb6b7bd" x="107.955372" y="137.599123" style="stroke: #000000"/>
     <use xlink:href="#m474cb6b7bd" x="110.722314" y="159.693581" style="stroke: #000000"/>
     <use xlink:href="#m474cb6b7bd" x="113.489256" y="170.685464" style="stroke: #000000"/>
     <use xlink:href="#m474cb6b7bd" x="116.256198" y="201.319628" style="stroke: #000000"/>
     <use xlink:href="#m474cb6b7bd" x="119.02314" y="206.066622" style="stroke: #000000"/>
     <use xlink:href="#m474cb6b7bd" x="121.790083" y="215.506456" style="stroke: #000000"/>
     <use xlink:href="#m474cb6b7bd" x="124.557025" y="203.279184" style="stroke: #000000"/>
     <use xlink:href="#m474cb6b7bd" x="127.323967" y="209.898237" style="stroke: #000000"/>
     <use xlink:href="#m474cb6b7bd" x="130.090909" y="211.575439" style="stroke: #000000"/>
     <use xlink:href="#m474cb6b7bd" x="132.857851" y="207.592437" style="stroke: #000000"/>
     <use xlink:href="#m474cb6b7bd" x="135.624793" y="216.009694" style="stroke: #000000"/>
     <use xlink:href="#m474cb6b7bd" x="138.391736" y="214.878815" style="stroke: #000000"/>
     <use xlink:href="#m474cb6b7bd" x="141.158678" y="205.501561" style="stroke: #000000"/>
     <use xlink:href="#m474cb6b7bd" x="143.92562" y="211.851811" style="stroke: #000000"/>
     <use xlink:href="#m474cb6b7bd" x="146.692562" y="201.729501" style="stroke: #000000"/>
     <use xlink:href="#m474cb6b7bd" x="149.459504" y="214.403405" style="stroke: #000000"/>
     <use xlink:href="#m474cb6b7bd" x="152.226446" y="207.984192" style="stroke: #000000"/>
     <use xlink:href="#m474cb6b7bd" x="154.993388" y="206.439116" style="stroke: #000000"/>
     <use xlink:href="#m474cb6b7bd" x="157.760331" y="210.902548" style="stroke: #000000"/>
     <use xlink:href="#m474cb6b7bd" x="160.527273" y="201.036251" style="stroke: #000000"/>
     <use xlink:href="#m474cb6b7bd" x="163.294215" y="200.908754" style="stroke: #000000"/>
     <use xlink:href="#m474cb6b7bd" x="166.061157" y="207.207885" style="stroke: #000000"/>
     <use xlink:href="#m474cb6b7bd" x="168.828099" y="195.051872" style="stroke: #000000"/>
     <use xlink:href="#m474cb6b7bd" x="171.595041" y="199.014925" style="stroke: #000000"/>
     <use xlink:href="#m474cb6b7bd" x="174.361983" y="201.351416" style="stroke: #000000"/>
     <use xlink:href="#m474cb6b7bd" x="177.128926" y="197.955878" style="stroke: #000000"/>
     <use xlink:href="#m474cb6b7bd" x="179.895868" y="198.709852" style="stroke: #000000"/>
     <use xlink:href="#m474cb6b7bd" x="182.66281" y="195.244991" style="stroke: #000000"/>
     <use xlink:href="#m474cb6b7bd" x="185.429752" y="202.999963" style="stroke: #000000"/>
     <use xlink:href="#m474cb6b7bd" x="188.196694" y="206.683592" style="stroke: #000000"/>
     <use xlink:href="#m474cb6b7bd" x="190.963636" y="199.516038" style="stroke: #000000"/>
     <use xlink:href="#m474cb6b7bd" x="193.730579" y="205.909943" style="stroke: #000000"/>
     <use xlink:href="#m474cb6b7bd" x="196.497521" y="193.531531" style="stroke: #000000"/>
     <use xlink:href="#m474cb6b7bd" x="199.264463" y="195.9104" style="stroke: #000000"/>
     <use xlink:href="#m474cb6b7bd" x="202.031405" y="206.506581" style="stroke: #000000"/>
     <use xlink:href="#m474cb6b7bd" x="207.565289" y="197.122677" style="stroke: #000000"/>
     <use xlink:href="#m474cb6b7bd" x="218.633058" y="199.015889" style="stroke: #000000"/>
     <use xlink:href="#m474cb6b7bd" x="229.700826" y="199.695311" style="stroke: #000000"/>
     <use xlink:href="#m474cb6b7bd" x="240.768595" y="207.076114" style="stroke: #000000"/>
     <use xlink:href="#m474cb6b7bd" x="251.836364" y="204.905914" style="stroke: #000000"/>
     <use xlink:href="#m474cb6b7bd" x="262.904132" y="204.512528" style="stroke: #000000"/>
     <use xlink:href="#m474cb6b7bd" x="273.971901" y="207.970538" style="stroke: #000000"/>
     <use xlink:href="#m474cb6b7bd" x="285.039669" y="208.191861" style="stroke: #000000"/>
     <use xlink:href="#m474cb6b7bd" x="296.107438" y="212.653372" style="stroke: #000000"/>
     <use xlink:href="#m474cb6b7bd" x="307.175207" y="210.518308" style="stroke: #000000"/>
     <use xlink:href="#m474cb6b7bd" x="318.242975" y="215.251641" style="stroke: #000000"/>
     <use xlink:href="#m474cb6b7bd" x="329.310744" y="219.028535" style="stroke: #000000"/>
     <use xlink:href="#m474cb6b7bd" x="340.378512" y="219.625984" style="stroke: #000000"/>
     <use xlink:href="#m474cb6b7bd" x="351.446281" y="223.604779" style="stroke: #000000"/>
     <use xlink:href="#m474cb6b7bd" x="362.51405" y="225.008042" style="stroke: #000000"/>
     <use xlink:href="#m474cb6b7bd" x="373.581818" y="227.917316" style="stroke: #000000"/>
    </g>
   </g>
   <g id="patch_3">
    <path d="M 54 256.32 
L 54 34.56 
" style="fill: none; stroke: #000000; stroke-width: 0.8; stroke-linejoin: miter; stroke-linecap: square"/>
   </g>
   <g id="patch_4">
    <path d="M 388.8 256.32 
L 388.8 34.56 
" style="fill: none; stroke: #000000; stroke-width: 0.8; stroke-linejoin: miter; stroke-linecap: square"/>
   </g>
   <g id="patch_5">
    <path d="M 54 256.32 
L 388.8 256.32 
" style="fill: none; stroke: #000000; stroke-width: 0.8; stroke-linejoin: miter; stroke-linecap: square"/>
   </g>
   <g id="patch_6">
    <path d="M 54 34.56 
L 388.8 34.56 
" style="fill: none; stroke: #000000; stroke-width: 0.8; stroke-linejoin: miter; stroke-linecap: square"/>
   </g>
   <g id="line2d_18">
    <path d="M 69.218182 45.45288 
L 71.985124 45.462821 
L 74.752066 45.492474 
L 77.519008 45.541904 
L 80.28595 45.611205 
L 83.052893 45.700498 
L 85.819835 45.810233 
L 88.586777 45.940648 
L 91.353719 47.267654 
L 94.120661 49.400552 
L 96.887603 51.538175 
L 99.654545 53.166706 
L 102.421488 54.442835 
L 105.18843 55.521653 
L 107.955372 56.450527 
L 110.722314 57.267374 
L 113.489256 58.003089 
L 116.256198 58.676929 
L 119.02314 59.308955 
L 121.790083 59.920395 
L 124.557025 60.508048 
L 127.323967 61.060433 
L 130.090909 61.641934 
L 132.857851 62.213525 
L 135.624793 62.769344 
L 138.391736 63.328798 
L 141.158678 63.908704 
L 143.92562 64.488468 
L 146.692562 65.090351 
L 149.459504 65.700119 
L 152.226446 66.333618 
L 154.993388 66.988137 
L 157.760331 67.630331 
L 160.527273 68.292297 
L 163.294215 68.965907 
L 166.061157 69.634644 
L 168.828099 70.334579 
L 171.595041 71.117785 
L 174.361983 71.860412 
L 177.128926 72.600352 
L 179.895868 73.362489 
L 182.66281 74.155493 
L 185.429752 74.98121 
L 188.196694 75.836192 
L 190.963636 76.640664 
L 193.730579 77.502218 
L 196.497521 78.374204 
L 199.264463 79.252825 
L 202.031405 80.218377 
L 204.798347 81.140662 
L 207.565289 82.081964 
L 207.565289 82.081964 
L 218.633058 86.037331 
L 229.700826 90.296957 
L 240.768595 94.860843 
L 251.836364 99.728987 
L 262.904132 104.90139 
L 273.971901 110.378053 
L 285.039669 116.158974 
L 296.107438 122.244154 
L 307.175207 128.633594 
L 318.242975 135.327292 
L 329.310744 142.32525 
L 340.378512 149.627466 
L 351.446281 157.233942 
L 362.51405 165.144676 
L 373.581818 173.35967 
" clip-path="url(#p29a0af03eb)" style="fill: none; stroke: #0000ff; stroke-width: 1.5; stroke-linecap: square"/>
   </g>
   <g id="legend_1">
    <g id="patch_7">
     <path d="M 287.7 101.2725 
L 381.8 101.2725 
Q 383.8 101.2725 383.8 99.2725 
L 383.8 41.56 
Q 383.8 39.56 381.8 39.56 
L 287.7 39.56 
Q 285.7 39.56 285.7 41.56 
L 285.7 99.2725 
Q 285.7 101.2725 287.7 101.2725 
z
" style="fill: #ffffff; opacity: 0.8; stroke: #cccccc; stroke-linejoin: miter"/>
    </g>
    <g id="line2d_19">
     <path d="M 289.7 47.658438 
L 299.7 47.658438 
L 309.7 47.658438 
" style="fill: none; stroke: #0000ff; stroke-width: 1.5; stroke-linecap: square"/>
    </g>
    <g id="text_18">
     <!-- fit of $n_s(0)$ -->
     <g transform="translate(317.7 51.158438) scale(0.1 -0.1)">
      <defs>
       <path id="DejaVuSans-66" d="M 2375 4863 
L 2375 4384 
L 1825 4384 
Q 1516 4384 1395 4259 
Q 1275 4134 1275 3809 
L 1275 3500 
L 2222 3500 
L 2222 3053 
L 1275 3053 
L 1275 0 
L 697 0 
L 697 3053 
L 147 3053 
L 147 3500 
L 697 3500 
L 697 3744 
Q 697 4328 969 4595 
Q 1241 4863 1831 4863 
L 2375 4863 
z
" transform="scale(0.015625)"/>
       <path id="DejaVuSans-69" d="M 603 3500 
L 1178 3500 
L 1178 0 
L 603 0 
L 603 3500 
z
M 603 4863 
L 1178 4863 
L 1178 4134 
L 603 4134 
L 603 4863 
z
" transform="scale(0.015625)"/>
       <path id="DejaVuSans-74" d="M 1172 4494 
L 1172 3500 
L 2356 3500 
L 2356 3053 
L 1172 3053 
L 1172 1153 
Q 1172 725 1289 603 
Q 1406 481 1766 481 
L 2356 481 
L 2356 0 
L 1766 0 
Q 1100 0 847 248 
Q 594 497 594 1153 
L 594 3053 
L 172 3053 
L 172 3500 
L 594 3500 
L 594 4494 
L 1172 4494 
z
" transform="scale(0.015625)"/>
       <path id="DejaVuSans-20" transform="scale(0.015625)"/>
       <path id="DejaVuSans-6f" d="M 1959 3097 
Q 1497 3097 1228 2736 
Q 959 2375 959 1747 
Q 959 1119 1226 758 
Q 1494 397 1959 397 
Q 2419 397 2687 759 
Q 2956 1122 2956 1747 
Q 2956 2369 2687 2733 
Q 2419 3097 1959 3097 
z
M 1959 3584 
Q 2709 3584 3137 3096 
Q 3566 2609 3566 1747 
Q 3566 888 3137 398 
Q 2709 -91 1959 -91 
Q 1206 -91 779 398 
Q 353 888 353 1747 
Q 353 2609 779 3096 
Q 1206 3584 1959 3584 
z
" transform="scale(0.015625)"/>
       <path id="DejaVuSans-28" d="M 1984 4856 
Q 1566 4138 1362 3434 
Q 1159 2731 1159 2009 
Q 1159 1288 1364 580 
Q 1569 -128 1984 -844 
L 1484 -844 
Q 1016 -109 783 600 
Q 550 1309 550 2009 
Q 550 2706 781 3412 
Q 1013 4119 1484 4856 
L 1984 4856 
z
" transform="scale(0.015625)"/>
       <path id="DejaVuSans-b0" d="M 1600 4347 
Q 1350 4347 1178 4173 
Q 1006 4000 1006 3750 
Q 1006 3503 1178 3333 
Q 1350 3163 1600 3163 
Q 1850 3163 2022 3333 
Q 2194 3503 2194 3750 
Q 2194 3997 2020 4172 
Q 1847 4347 1600 4347 
z
M 1600 4750 
Q 1800 4750 1984 4673 
Q 2169 4597 2303 4453 
Q 2447 4313 2519 4134 
Q 2591 3956 2591 3750 
Q 2591 3338 2302 3052 
Q 2013 2766 1594 2766 
Q 1172 2766 890 3047 
Q 609 3328 609 3750 
Q 609 4169 896 4459 
Q 1184 4750 1600 4750 
z
" transform="scale(0.015625)"/>
       <path id="DejaVuSans-29" d="M 513 4856 
L 1013 4856 
Q 1481 4119 1714 3412 
Q 1947 2706 1947 2009 
Q 1947 1309 1714 600 
Q 1481 -109 1013 -844 
L 513 -844 
Q 928 -128 1133 580 
Q 1338 1288 1338 2009 
Q 1338 2731 1133 3434 
Q 928 4138 513 4856 
z
" transform="scale(0.015625)"/>
      </defs>
      <use xlink:href="#DejaVuSans-66" transform="translate(0 0.015625)"/>
      <use xlink:href="#DejaVuSans-69" transform="translate(35.205078 0.015625)"/>
      <use xlink:href="#DejaVuSans-74" transform="translate(62.988281 0.015625)"/>
      <use xlink:href="#DejaVuSans-20" transform="translate(102.197266 0.015625)"/>
      <use xlink:href="#DejaVuSans-6f" transform="translate(133.984375 0.015625)"/>
      <use xlink:href="#DejaVuSans-66" transform="translate(195.166016 0.015625)"/>
      <use xlink:href="#DejaVuSans-20" transform="translate(230.371094 0.015625)"/>
      <use xlink:href="#DejaVuSans-Oblique-6e" transform="translate(262.158203 0.015625)"/>
      <use xlink:href="#DejaVuSans-Oblique-73" transform="translate(325.537109 -16.390625) scale(0.7)"/>
      <use xlink:href="#DejaVuSans-28" transform="translate(364.741211 0.015625)"/>
      <use xlink:href="#DejaVuSans-30" transform="translate(403.754883 0.015625)"/>
      <use xlink:href="#DejaVuSans-b0" transform="translate(467.37793 0.015625)"/>
      <use xlink:href="#DejaVuSans-29" transform="translate(517.37793 0.015625)"/>
     </g>
    </g>
    <g id="line2d_20">
     <path d="M 289.7 62.336563 
L 299.7 62.336563 
L 309.7 62.336563 
" style="fill: none; stroke: #008000; stroke-width: 1.5; stroke-linecap: square"/>
    </g>
    <g id="text_19">
     <!-- fit of $n_s(90)$ -->
     <g transform="translate(317.7 65.836563) scale(0.1 -0.1)">
      <use xlink:href="#DejaVuSans-66" transform="translate(0 0.015625)"/>
      <use xlink:href="#DejaVuSans-69" transform="translate(35.205078 0.015625)"/>
      <use xlink:href="#DejaVuSans-74" transform="translate(62.988281 0.015625)"/>
      <use xlink:href="#DejaVuSans-20" transform="translate(102.197266 0.015625)"/>
      <use xlink:href="#DejaVuSans-6f" transform="translate(133.984375 0.015625)"/>
      <use xlink:href="#DejaVuSans-66" transform="translate(195.166016 0.015625)"/>
      <use xlink:href="#DejaVuSans-20" transform="translate(230.371094 0.015625)"/>
      <use xlink:href="#DejaVuSans-Oblique-6e" transform="translate(262.158203 0.015625)"/>
      <use xlink:href="#DejaVuSans-Oblique-73" transform="translate(325.537109 -16.390625) scale(0.7)"/>
      <use xlink:href="#DejaVuSans-28" transform="translate(364.741211 0.015625)"/>
      <use xlink:href="#DejaVuSans-39" transform="translate(403.754883 0.015625)"/>
      <use xlink:href="#DejaVuSans-30" transform="translate(467.37793 0.015625)"/>
      <use xlink:href="#DejaVuSans-b0" transform="translate(531.000977 0.015625)"/>
      <use xlink:href="#DejaVuSans-29" transform="translate(581.000977 0.015625)"/>
     </g>
    </g>
    <g id="LineCollection_3">
     <path d="M 299.7 82.014688 
L 299.7 72.014688 
" style="fill: none; stroke: #ff0000; stroke-width: 1.5"/>
    </g>
    <g id="line2d_21"/>
    <g id="line2d_22">
     <g>
      <use xlink:href="#m4c33dc4cef" x="299.7" y="77.014688" style="fill: #ff0000; stroke: #ff0000"/>
     </g>
    </g>
    <g id="text_20">
     <!-- $n_s(0)$ -->
     <g transform="translate(317.7 80.514688) scale(0.1 -0.1)">
      <use xlink:href="#DejaVuSans-Oblique-6e" transform="translate(0 0.125)"/>
      <use xlink:href="#DejaVuSans-Oblique-73" transform="translate(63.378906 -16.28125) scale(0.7)"/>
      <use xlink:href="#DejaVuSans-28" transform="translate(102.583008 0.125)"/>
      <use xlink:href="#DejaVuSans-30" transform="translate(141.59668 0.125)"/>
      <use xlink:href="#DejaVuSans-b0" transform="translate(205.219727 0.125)"/>
      <use xlink:href="#DejaVuSans-29" transform="translate(255.219727 0.125)"/>
     </g>
    </g>
    <g id="LineCollection_4">
     <path d="M 299.7 96.692813 
L 299.7 86.692813 
" style="fill: none; stroke: #000000; stroke-width: 1.5"/>
    </g>
    <g id="line2d_23"/>
    <g id="line2d_24">
     <g>
      <use xlink:href="#m474cb6b7bd" x="299.7" y="91.692813" style="stroke: #000000"/>
     </g>
    </g>
    <g id="text_21">
     <!-- $n_s(90)$ -->
     <g transform="translate(317.7 95.192813) scale(0.1 -0.1)">
      <use xlink:href="#DejaVuSans-Oblique-6e" transform="translate(0 0.125)"/>
      <use xlink:href="#DejaVuSans-Oblique-73" transform="translate(63.378906 -16.28125) scale(0.7)"/>
      <use xlink:href="#DejaVuSans-28" transform="translate(102.583008 0.125)"/>
      <use xlink:href="#DejaVuSans-39" transform="translate(141.59668 0.125)"/>
      <use xlink:href="#DejaVuSans-30" transform="translate(205.219727 0.125)"/>
      <use xlink:href="#DejaVuSans-b0" transform="translate(268.842773 0.125)"/>
      <use xlink:href="#DejaVuSans-29" transform="translate(318.842773 0.125)"/>
     </g>
    </g>
   </g>
  </g>
 </g>
 <defs>
  <clipPath id="p29a0af03eb">
   <rect x="54" y="34.56" width="334.8" height="221.76"/>
  </clipPath>
 </defs>
</svg>
